<svg id="Layer_3" data-name="Layer 3" xmlns="http://www.w3.org/2000/svg" viewBox="0 0 36.11 34.26"><defs><style>.cls-1,.cls-3{fill:none;stroke:#fff;stroke-width:2.2px;}.cls-1{stroke-miterlimit:10;}.cls-2{fill:#fff;}.cls-3{stroke-linecap:round;stroke-linejoin:round;}</style></defs><title>icon_media</title><rect class="cls-1" x="1.1" y="1.1" width="33.91" height="32.06" rx="5.12" ry="5.12"/><path class="cls-1" d="M40.49,36.85c0,2.3-2.3,4.17-5.12,4.17H11.71c-2.82,0-5.13-1.87-5.13-4.17s2.31-4.17,5.13-4.17H35.37C38.19,32.68,40.49,34.56,40.49,36.85Z" transform="translate(-5.48 -7.87)"/><path class="cls-2" d="M27.35,22.1a1.35,1.35,0,0,0,0-2.56l-5.77-3.33c-1.22-.7-2.21-.13-2.21,1.28v6.66c0,1.41,1,2,2.21,1.28Z" transform="translate(-5.48 -7.87)"/><line class="cls-3" x1="6.8" y1="28.98" x2="11.81" y2="28.98"/><line class="cls-3" x1="29.94" y1="28.98" x2="31.32" y2="28.98"/></svg>